<?xml version="1.0" encoding="UTF-8"?>
<svg version="1.1" xmlns="http://www.w3.org/2000/svg" width="279" height="285">
<path d="M0 0 C92.07 0 184.14 0 279 0 C279 94.05 279 188.1 279 285 C186.93 285 94.86 285 0 285 C0 190.95 0 96.9 0 0 Z " fill="#F9FAFD" transform="translate(0,0)"/>
<path d="M0 0 C12.1038793 3.22265786 22.20880302 17.20212217 30.95458984 25.79663086 C33.06574353 27.86757909 35.19366122 29.91867558 37.33837891 31.95483398 C39.95108374 34.4356114 42.52980937 36.94747112 45.08831787 39.48406792 C46.52746106 40.89532744 47.99809072 42.27425006 49.46923828 43.65211487 C54.28138729 48.49436196 56.72296965 51.72988062 56.91015625 58.70092773 C56.51668288 66.72737646 52.22580864 71.07444513 46.8125 76.45703125 C46.25626953 77.029375 45.70003906 77.60171875 45.12695312 78.19140625 C41.00909192 82.31406124 37.10985566 85.24803775 31.25 86.39453125 C24.78970142 85.2316775 20.34422155 80.13704843 15.8671875 75.61328125 C15.16190918 74.90236328 14.45663086 74.19144531 13.72998047 73.45898438 C13.20033691 72.92208984 12.67069336 72.38519531 12.125 71.83203125 C12.11041748 73.08862549 12.09583496 74.34521973 12.08081055 75.63989258 C12.02288396 80.29741017 11.94565089 84.95444141 11.86254883 89.61157227 C11.8292729 91.6280936 11.80124932 93.64470867 11.77856445 95.66137695 C11.74506744 98.55851225 11.69275456 101.45478643 11.63671875 104.3515625 C11.63032883 105.25477737 11.6239389 106.15799225 11.61735535 107.08857727 C11.58766411 108.34954475 11.58766411 108.34954475 11.55737305 109.63598633 C11.54071846 110.74518181 11.54071846 110.74518181 11.52372742 111.87678528 C11.01667098 114.36324597 10.07233445 115.25516209 8.125 116.83203125 C4.48807797 118.26172138 0.62748408 117.96153037 -3.23046875 117.96484375 C-3.93271072 117.96580048 -4.6349527 117.9667572 -5.35847473 117.96774292 C-6.83688446 117.96842145 -8.31529722 117.96659 -9.79370117 117.96240234 C-12.06500858 117.95702531 -14.3361204 117.96237063 -16.60742188 117.96875 C-18.04427127 117.96808963 -19.48112055 117.96680933 -20.91796875 117.96484375 C-22.22789795 117.96371582 -23.53782715 117.96258789 -24.88745117 117.96142578 C-27.875 117.83203125 -27.875 117.83203125 -28.875 116.83203125 C-29.03510481 114.09501947 -29.13446828 111.38035535 -29.19140625 108.640625 C-29.21218735 107.82078629 -29.23296844 107.00094757 -29.25437927 106.15626526 C-29.31996494 103.52744224 -29.37880126 100.89851621 -29.4375 98.26953125 C-29.48067667 96.49152564 -29.52429067 94.7135306 -29.56835938 92.93554688 C-29.67565543 88.56781491 -29.77689704 84.19997898 -29.875 79.83203125 C-33.02572128 82.95775596 -36.17293136 86.08696435 -39.31713867 89.21923828 C-40.38392297 90.28103986 -41.45160853 91.34193683 -42.52026367 92.40185547 C-48.00924608 97.84713169 -53.4577162 103.27753968 -58.42773438 109.2109375 C-59.94642047 110.91202988 -61.59332274 112.33692208 -63.3125 113.83203125 C-66.16863771 116.69020847 -66.16863771 116.69020847 -66.6875 120.70703125 C-66.4052471 124.25212772 -65.19450376 125.99264874 -62.82421875 128.58984375 C-62.19088623 129.28480957 -61.55755371 129.97977539 -60.9050293 130.69580078 C-57.62842477 134.14382118 -54.27058069 137.5015 -50.875 140.83203125 C-46.23406547 145.38405899 -41.78923087 150.00335121 -37.55078125 154.93359375 C-35.11231309 157.69605419 -32.51190415 160.25944184 -29.875 162.83203125 C-29.87089111 162.19177002 -29.86678223 161.55150879 -29.86254883 160.8918457 C-29.82953962 157.9751522 -29.75888974 155.06052741 -29.6875 152.14453125 C-29.68169922 151.13712891 -29.67589844 150.12972656 -29.66992188 149.09179688 C-29.64091797 148.11533203 -29.61191406 147.13886719 -29.58203125 146.1328125 C-29.5663208 145.23731689 -29.55061035 144.34182129 -29.53442383 143.41918945 C-28.57304968 139.64737092 -26.955331 138.16291823 -23.875 135.83203125 C-20.43334961 135.21679688 -20.43334961 135.21679688 -16.52734375 135.23828125 C-15.48677574 135.23822083 -15.48677574 135.23822083 -14.42518616 135.23815918 C-12.96524954 135.24349907 -11.50531218 135.26101681 -10.0456543 135.29003906 C-7.8153479 135.3319777 -5.58805706 135.33109812 -3.35742188 135.32421875 C7.07643459 135.40116773 7.07643459 135.40116773 10.5378418 136.82348633 C13.06699242 140.02412041 12.72848386 143.52624251 12.734375 147.4375 C12.75091125 148.27670486 12.76744751 149.11590973 12.78448486 149.98054504 C12.83306023 152.66028083 12.85435628 155.33944882 12.875 158.01953125 C12.90315181 159.83661726 12.93307813 161.6536767 12.96484375 163.47070312 C13.0388214 167.92443243 13.08833743 172.37784476 13.125 176.83203125 C13.72187622 176.17400513 13.72187622 176.17400513 14.33081055 175.50268555 C16.15173062 173.50245046 17.98197657 171.51097982 19.8125 169.51953125 C20.43833984 168.82923828 21.06417969 168.13894531 21.70898438 167.42773438 C29.24442456 159.26105312 29.24442456 159.26105312 35.0625 158.39453125 C41.46717905 159.3094854 46.21525944 164.50256753 50.8125 168.76953125 C51.38033203 169.28193359 51.94816406 169.79433594 52.53320312 170.32226562 C56.23763749 173.74007318 59.566833 176.94062563 60.55859375 182.078125 C60.55988281 182.80128906 60.56117188 183.52445313 60.5625 184.26953125 C60.58183594 184.99011719 60.60117188 185.71070313 60.62109375 186.453125 C59.19132191 193.30927499 52.89615496 198.30781561 48.11328125 203.00390625 C47.34445114 203.76753479 46.57562103 204.53116333 45.78349304 205.31793213 C43.33955804 207.74412653 40.88900868 210.16349171 38.4375 212.58203125 C35.97618646 215.01573813 33.51634739 217.45089049 31.05937195 219.88897705 C29.53298407 221.40309282 28.00393126 222.91452762 26.47200012 224.42303467 C25.7842601 225.10424377 25.09652008 225.78545288 24.38793945 226.48730469 C23.78045364 227.08653748 23.17296783 227.68577026 22.54707336 228.30316162 C21.02681025 229.79365245 21.02681025 229.79365245 20.125 231.83203125 C19.465 231.83203125 18.805 231.83203125 18.125 231.83203125 C17.91875 232.38890625 17.7125 232.94578125 17.5 233.51953125 C15.17930795 237.42251333 11.75912101 239.878794 7.875 242.14453125 C2.09652861 243.5891491 -3.02091667 243.84334943 -8.3125 240.95703125 C-9.158125 240.25578125 -10.00375 239.55453125 -10.875 238.83203125 C-12.36 237.84203125 -12.36 237.84203125 -13.875 236.83203125 C-13.875 236.17203125 -13.875 235.51203125 -13.875 234.83203125 C-14.535 234.83203125 -15.195 234.83203125 -15.875 234.83203125 C-17.390625 233.2578125 -17.390625 233.2578125 -19.125 231.14453125 C-21.29397174 228.58568236 -23.28224173 226.49266314 -25.875 224.33203125 C-28.26748018 222.33829776 -30.05713951 220.5459221 -32.0443573 218.19804382 C-35.89186498 213.75195905 -39.98582033 209.60826929 -44.1652832 205.47583008 C-44.96288559 204.68290054 -45.76048798 203.88997101 -46.58226013 203.07301331 C-48.30045758 201.36525448 -50.01975302 199.65859978 -51.74004555 197.95295143 C-54.46207747 195.25306152 -57.18002062 192.54911835 -59.89677429 189.84391785 C-67.61648817 182.15769897 -75.34029131 174.47562779 -83.07446289 166.80395508 C-87.81599866 162.10064143 -92.54960323 157.38946802 -97.27889061 152.67383385 C-99.08028612 150.8804961 -100.88445558 149.08994034 -102.69143105 147.30222511 C-105.21175074 144.8083249 -107.72269126 142.30533139 -110.23168945 139.80004883 C-110.98026215 139.06383301 -111.72883484 138.32761719 -112.50009155 137.5690918 C-113.18268539 136.88381912 -113.86527924 136.19854645 -114.56855774 135.49250793 C-115.16231862 134.90281125 -115.7560795 134.31311457 -116.36783314 133.70554829 C-119.21897253 130.16137653 -120.17752602 126.5056706 -120.25 122.01953125 C-120.27835938 121.22933594 -120.30671875 120.43914062 -120.3359375 119.625 C-118.98577003 111.44390048 -113.7939526 106.20736569 -108.07421875 100.67578125 C-107.31961868 99.92921265 -106.56501862 99.18264404 -105.78755188 98.41345215 C-103.38854411 96.04326487 -100.97628102 93.68716325 -98.5625 91.33203125 C-96.16207095 88.97436777 -93.76456863 86.61380312 -91.36958313 84.25061035 C-89.8840431 82.78645047 -88.39499581 81.32583696 -86.90177917 79.86950684 C-83.66904318 76.69785345 -80.54208187 73.50445802 -77.59814453 70.06176758 C-73.2391346 65.00062877 -68.48915449 60.33420673 -63.75102806 55.63289452 C-62.07142823 53.96622147 -60.39511577 52.29630133 -58.71955872 50.62556458 C-55.17003355 47.08737404 -51.6165525 43.55317335 -48.0625 40.01953125 C-43.9236596 35.90433183 -39.7864782 31.78749183 -35.65346718 27.66643715 C-34.0036145 26.02305498 -32.35077661 24.38271618 -30.69779968 22.74247742 C-29.68925508 21.73756428 -28.68085001 20.73251107 -27.67260742 19.72729492 C-26.35192513 18.41446785 -26.35192513 18.41446785 -25.00456238 17.07511902 C-22.74719852 14.82514593 -22.74719852 14.82514593 -20.875 11.83203125 C-20.215 11.83203125 -19.555 11.83203125 -18.875 11.83203125 C-18.48441406 10.95804688 -18.48441406 10.95804688 -18.0859375 10.06640625 C-13.97426758 2.47971207 -8.3545294 0.05675631 0 0 Z " fill="#32538F" transform="translate(136.875,19.16796875)"/>
<path d="M0 0 C1.04056801 -0.00006042 1.04056801 -0.00006042 2.10215759 -0.00012207 C3.56209421 0.00521782 5.02203157 0.02273556 6.48168945 0.05175781 C8.71199585 0.09369645 10.93928669 0.09281687 13.16992188 0.0859375 C23.60377834 0.16288648 23.60377834 0.16288648 27.06518555 1.58520508 C29.59433617 4.78583916 29.25582761 8.28796126 29.26171875 12.19921875 C29.278255 13.03842361 29.29479126 13.87762848 29.31182861 14.74226379 C29.36040398 17.42199958 29.38170003 20.10116757 29.40234375 22.78125 C29.43049556 24.59833601 29.46042188 26.41539545 29.4921875 28.23242188 C29.56616515 32.68615118 29.61568118 37.13956351 29.65234375 41.59375 C30.05026123 41.15506592 30.44817871 40.71638184 30.8581543 40.2644043 C32.67907437 38.26416921 34.50932032 36.27269857 36.33984375 34.28125 C36.96568359 33.59095703 37.59152344 32.90066406 38.23632812 32.18945312 C45.77176831 24.02277187 45.77176831 24.02277187 51.58984375 23.15625 C57.9945228 24.07120415 62.74260319 29.26428628 67.33984375 33.53125 C67.90767578 34.04365234 68.47550781 34.55605469 69.06054688 35.08398438 C72.76498124 38.50179193 76.09417675 41.70234438 77.0859375 46.83984375 C77.08722656 47.56300781 77.08851563 48.28617188 77.08984375 49.03125 C77.10917969 49.75183594 77.12851563 50.47242188 77.1484375 51.21484375 C75.71866566 58.07099374 69.42349871 63.06953436 64.640625 67.765625 C63.87179489 68.52925354 63.10296478 69.29288208 62.31083679 70.07965088 C59.86690179 72.50584528 57.41635243 74.92521046 54.96484375 77.34375 C52.50353021 79.77745688 50.04369114 82.21260924 47.5867157 84.6506958 C46.06032782 86.16481157 44.53127501 87.67624637 42.99934387 89.18475342 C42.31160385 89.86596252 41.62386383 90.54717163 40.9152832 91.24902344 C40.30779739 91.84825623 39.70031158 92.44748901 39.07441711 93.06488037 C37.554154 94.5553712 37.554154 94.5553712 36.65234375 96.59375 C35.99234375 96.59375 35.33234375 96.59375 34.65234375 96.59375 C34.44609375 97.150625 34.23984375 97.7075 34.02734375 98.28125 C31.7066517 102.18423208 28.28646476 104.64051275 24.40234375 106.90625 C18.62387236 108.35086785 13.50642708 108.60506818 8.21484375 105.71875 C7.36921875 105.0175 6.52359375 104.31625 5.65234375 103.59375 C4.16734375 102.60375 4.16734375 102.60375 2.65234375 101.59375 C2.65234375 100.93375 2.65234375 100.27375 2.65234375 99.59375 C1.99234375 99.59375 1.33234375 99.59375 0.65234375 99.59375 C-0.86328125 98.01953125 -0.86328125 98.01953125 -2.59765625 95.90625 C-4.76741995 93.26371668 -6.59428747 91.42203895 -9.42805481 89.44909668 C-12.14730981 87.18908305 -12.33064526 86.67580532 -13.10282898 82.9510498 C-13.13523689 81.52437409 -13.13490538 80.09671487 -13.1081543 78.66992188 C-13.11706192 77.88718399 -13.12596954 77.10444611 -13.13514709 76.29798889 C-13.15640363 73.7186366 -13.13414023 71.14179022 -13.109375 68.5625 C-13.1108778 66.76558172 -13.11430877 64.9686641 -13.11958313 63.17175293 C-13.12391274 59.40892876 -13.10709114 55.64696214 -13.07495117 51.88427734 C-13.03516952 47.0652032 -13.04447064 42.2477369 -13.06918621 37.42861176 C-13.08338034 33.71900289 -13.07327393 30.00976854 -13.0556736 26.30018616 C-13.04983051 24.52361445 -13.05111625 22.74700431 -13.0596981 20.97044373 C-13.06770522 18.48529131 -13.04341226 16.00248138 -13.01049805 13.51757812 C-13.01904816 12.78599991 -13.02759827 12.05442169 -13.03640747 11.30067444 C-12.94805735 7.42892412 -12.44395511 5.71614704 -10.02133179 2.63696289 C-6.51550795 -0.04217463 -4.38161319 -0.02410038 0 0 Z " fill="#F4682E" transform="translate(120.34765625,154.40625)"/>
<path d="M0 0 C1.80645752 1.33239746 1.80645752 1.33239746 3.73925781 3.08398438 C4.44328735 3.72094238 5.14731689 4.35790039 5.87268066 5.01416016 C9.10648995 8.03290173 12.28313314 11.10137666 15.421875 14.21875 C16.08914612 14.88032104 16.75641724 15.54189209 17.44390869 16.22351074 C18.84011844 17.6103538 20.23494201 18.9985937 21.62841797 20.38818359 C23.75172893 22.50172098 25.8854823 24.60434375 28.01953125 26.70703125 C29.38346973 28.06444409 30.7467732 29.42249537 32.109375 30.78125 C32.74172058 31.40124878 33.37406616 32.02124756 34.02557373 32.66003418 C38.4323283 37.08903377 42.36390998 41.55295336 43.53125 47.87890625 C43.5209375 48.76449219 43.510625 49.65007812 43.5 50.5625 C43.51546875 51.89474609 43.51546875 51.89474609 43.53125 53.25390625 C42.28564472 59.69258651 37.22837154 64.00163035 32.6875 68.375 C29.08569064 71.90489304 25.5266428 75.41054561 22.25 79.25 C17.24890377 85.10313485 11.85633601 90.63013666 5.9375 95.5625 C5.36902344 96.03816406 4.80054688 96.51382813 4.21484375 97.00390625 C0.84874178 98.51776163 -2.41074767 98.58393407 -6 98 C-8.39399486 96.39104141 -10.00033766 95.07145437 -11.953125 93.0390625 C-12.49551819 92.50713287 -13.03791138 91.97520325 -13.59674072 91.42715454 C-14.78213704 90.25943734 -15.95846119 89.08245642 -17.12670898 87.89758301 C-19.07368142 85.92536312 -21.04609206 83.98174256 -23.02539062 82.04199219 C-26.57021785 78.55933858 -30.08902721 75.05180539 -33.59765625 71.53271484 C-35.78529181 69.33962012 -37.97835402 67.15205034 -40.171875 64.96484375 C-41.56802988 63.56802965 -42.96387538 62.17090624 -44.359375 60.7734375 C-45.01339294 60.12144379 -45.66741089 59.46945007 -46.34124756 58.79769897 C-46.9398761 58.19591827 -47.53850464 57.59413757 -48.15527344 56.97412109 C-48.94584137 56.18235977 -48.94584137 56.18235977 -49.75238037 55.37460327 C-51.71790241 53.20902896 -52.0296281 51.8148244 -52.5 48.875 C-51.97273138 44.78866816 -51.61282849 44.15316251 -48.98120117 41.28076172 C-48.34338715 40.5820697 -47.70557312 39.88337769 -47.0484314 39.16351318 C-43.67933648 35.60514102 -40.26310768 32.10051336 -36.80078125 28.6328125 C-36.043311 27.87201385 -35.28584076 27.11121521 -34.50541687 26.32736206 C-32.91759699 24.73451585 -31.32845301 23.14298853 -29.73803711 21.55273438 C-27.30359035 19.11608228 -24.87727723 16.67151662 -22.45117188 14.2265625 C-20.90153101 12.67399059 -19.35141745 11.12189031 -17.80078125 9.5703125 C-17.0778035 8.84014923 -16.35482574 8.10998596 -15.60993958 7.35769653 C-14.59319405 6.34556595 -14.59319405 6.34556595 -13.5559082 5.31298828 C-12.96413284 4.7197879 -12.37235748 4.12658752 -11.76264954 3.51541138 C-8.07267191 0.34300872 -4.8474907 -0.83898877 0 0 Z " fill="#F4682E" transform="translate(211,91)"/>
<path d="M0 0 C0.66 0 1.32 0 2 0 C2.17251853 3.52057091 2.33684708 7.04148363 2.5 10.5625 C2.54769531 11.53380859 2.59539062 12.50511719 2.64453125 13.50585938 C3.0181166 21.69805246 3 29.7729004 3 38 C13.89 38 24.78 38 36 38 C33.55922148 40.44077852 32.25117641 40.23616181 28.92015076 40.25224304 C28.23364944 40.24505753 27.54714813 40.23787201 26.83984375 40.23046875 C26.13477188 40.23001053 25.42970001 40.22955231 24.70326233 40.2290802 C23.21288368 40.22605863 21.72250816 40.2181751 20.23217773 40.20581055 C17.94308367 40.18754456 15.65439373 40.18530091 13.36523438 40.18554688 C11.91926731 40.18063206 10.47330301 40.1748039 9.02734375 40.16796875 C7.99455544 40.16629951 7.99455544 40.16629951 6.94090271 40.16459656 C2.11605499 40.11605499 2.11605499 40.11605499 1 39 C0.83976438 36.11747355 0.74045971 33.25621473 0.68359375 30.37109375 C0.66281265 29.50686295 0.64203156 28.64263214 0.62062073 27.75221252 C0.55502886 24.98072555 0.49619582 22.20914079 0.4375 19.4375 C0.39432392 17.56314077 0.35070994 15.68879157 0.30664062 13.81445312 C0.19933773 9.20973664 0.09809785 4.60492142 0 0 Z " fill="#516A9E" transform="translate(107,97)"/>
</svg>
